<?xml version="1.0" encoding="iso-8859-1"?>
<!-- Generator: Adobe Illustrator 16.0.0, SVG Export Plug-In . SVG Version: 6.00 Build 0)  -->
<!DOCTYPE svg PUBLIC "-//W3C//DTD SVG 1.1//EN" "http://www.w3.org/Graphics/SVG/1.1/DTD/svg11.dtd">
<svg version="1.1" id="Capa_1" xmlns="http://www.w3.org/2000/svg" xmlns:xlink="http://www.w3.org/1999/xlink" x="0px" y="0px"
	 width="191.675px" height="191.675px" viewBox="0 0 191.675 191.675" style="enable-background:new 0 0 191.675 191.675;"
	 xml:space="preserve">
<g>
	<path d="M71.281,104.195h19.588v19.594H71.281V104.195z M99.525,123.795h19.589v-19.594H99.525V123.795L99.525,123.795z
		 M71.281,153.189h19.588v-19.589H71.281V153.189z M99.525,153.189h19.589v-19.589H99.525V153.189L99.525,153.189z M191.675,95.837
		c0,52.837-42.995,95.832-95.837,95.832C43.004,191.669,0,148.674,0,95.837C0,42.998,42.998,0.006,95.838,0.006
		C148.68,0.006,191.675,42.998,191.675,95.837z M18.158,95.837c0,2.234,0.145,4.416,0.346,6.608l76.704-51.864l77.942,52.709
		c0.236-2.453,0.378-4.93,0.378-7.442c0-42.835-34.85-77.673-77.679-77.673C53.008,18.17,18.158,53.002,18.158,95.837z
		 M168.8,122.259l-73.598-49.76L22.63,121.567c10.654,30.203,39.404,51.949,73.214,51.949
		C129.387,173.511,157.947,152.102,168.8,122.259z"/>
</g>
<g>
</g>
<g>
</g>
<g>
</g>
<g>
</g>
<g>
</g>
<g>
</g>
<g>
</g>
<g>
</g>
<g>
</g>
<g>
</g>
<g>
</g>
<g>
</g>
<g>
</g>
<g>
</g>
<g>
</g>
</svg>
